<svg xmlns="http://www.w3.org/2000/svg" viewBox="0 0 1240 1754">
   <image id="background" width="1240" height="1754" href="" />
   <image id="flower" width="1240" height="1754" href="" />
   <image id="coin" width="1240" height="1754" href="" />
   <image id="grave" width="1240" height="1754" href="" />
   <!-- nested petals background SVG -->
   <g>
      <svg version="1.1" id="petals" xmlns="http://www.w3.org/2000/svg" xmlns:xlink="http://www.w3.org/1999/xlink"
         x="0px" y="0px" viewBox="0 0 1240 1754" style="enable-background:new 0 0 1240 1754;" xml:space="preserve">
         <style type="text/css">
            .st0 {
               fill: #02FC02;
            }

            /* The animation code */
            @keyframes example {
               from {
                  opacity: 0.7;
               }

               to {
                  opacity: 0;
               }
            }

            /* The element to apply the animation to */
            #petal1 {
               animation-timing-function: linear;
               animation-delay: 0s;
               animation-duration: 2s;
               animation-name: example;
               animation-iteration-count: infinite;
               animation-direction: alternate;
            }

            #petal2 {
               animation-timing-function: ease;
               animation-delay: 1s;
               animation-duration: 2s;
               animation-name: example;
               animation-iteration-count: infinite;
               animation-direction: alternate;
            }

            #petal3 {
               animation-timing-function: linear;
               animation-delay: 0.5s;
               animation-duration: 2s;
               animation-name: example;
               animation-iteration-count: infinite;
               animation-direction: alternate;
            }

            #petal4 {
               animation-timing-function: linear;
               animation-delay: 0.3s;
               animation-duration: 2s;
               animation-name: example;
               animation-iteration-count: infinite;
               animation-direction: alternate;
            }

            #petal5 {
               animation-timing-function: linear;
               animation-delay: 0.2s;
               animation-duration: 2s;
               animation-name: example;
               animation-iteration-count: infinite;
               animation-direction: alternate;
            }

            #petal6 {
               animation-timing-function: linear;
               animation-delay: 2s;
               animation-duration: 3s;
               animation-name: example;
               animation-iteration-count: infinite;
               animation-direction: alternate;
            }

            #petal7 {
               animation-timing-function: linear;
               animation-delay: 2s;
               animation-duration: 2s;
               animation-name: example;
               animation-iteration-count: infinite;
               animation-direction: alternate;
            }

            #petal8 {
               animation-timing-function: linear;
               animation-delay: 0.5s;
               animation-duration: 3s;
               animation-name: example;
               animation-iteration-count: infinite;
               animation-direction: alternate;
            }

            #petal9 {
               animation-timing-function: linear;
               animation-delay: 0.1s;
               animation-duration: 1s;
               animation-name: example;
               animation-iteration-count: infinite;
               animation-direction: alternate;
            }

            #petal10 {
               animation-timing-function: linear;
               animation-delay: 1.2s;
               animation-duration: 1s;
               animation-name: example;
               animation-iteration-count: infinite;
               animation-direction: alternate;
            }

            #petal11 {
               animation-timing-function: ease-in-out;
               animation-delay: 4s;
               animation-duration: 4s;
               animation-name: example;
               animation-iteration-count: infinite;
               animation-direction: alternate;
            }

            #petal12 {
               animation-timing-function: ease-in;
               animation-delay: 0.8s;
               animation-duration: 0.8s;
               animation-name: example;
               animation-iteration-count: infinite;
               animation-direction: alternate;
            }

            #petal13 {
               animation-timing-function: ease-out;
               animation-delay: 0s;
               animation-duration: 2s;
               animation-name: example;
               animation-iteration-count: infinite;
               animation-direction: alternate;
            }

            #petal14 {
               animation-timing-function: linear;
               animation-delay: 0s;
               animation-duration: 1s;
               animation-name: example;
               animation-iteration-count: infinite;
               animation-direction: alternate;
            }

            #petal15 {
               animation-timing-function: linear;
               animation-delay: 0.6s;
               animation-duration: 2s;
               animation-name: example;
               animation-iteration-count: infinite;
               animation-direction: alternate;
            }

            #petal16 {
               animation-timing-function: linear;
               animation-delay: 1.3s;
               animation-duration: 0.9s;
               animation-name: example;
               animation-iteration-count: infinite;
               animation-direction: alternate;
            }

            #petal17 {
               animation-timing-function: linear;
               animation-delay: 0.9s;
               animation-duration: 3.2s;
               animation-name: example;
               animation-iteration-count: infinite;
               animation-direction: alternate;
            }

            #petal18 {
               animation-timing-function: ease-in-out;
               animation-delay: 1.9s;
               animation-duration: 2.9s;
               animation-name: example;
               animation-iteration-count: infinite;
               animation-direction: alternate;
            }

            #petal19 {
               animation-timing-function: linear;
               animation-delay: 0.4s;
               animation-duration: 3.4s;
               animation-name: example;
               animation-iteration-count: infinite;
               animation-direction: alternate;
            }

            #petal20 {
               animation-timing-function: ease;
               animation-delay: 0s;
               animation-duration: 2.6s;
               animation-name: example;
               animation-iteration-count: infinite;
               animation-direction: alternate;
            }
         </style>

         <path id="petal1" class="st0" d="M399.8,135.2c9.03,0.94,18.3,4.36,26.76,9.4c35.42,21.11,67.86,45.86,93.67,78.49
	c12.16,15.38,21.72,32.31,30.08,49.96c8.49,17.92,15.93,36.28,23.33,54.67c1.25,3.1,0.84,4.62-2.12,6.24
	c-8.34,4.58-16.07,10.12-23.34,16.24c-2.07,1.74-3.27,1.8-5.18-0.3c-21.62-23.77-43.31-47.48-65.05-71.14
	c-25.38-27.61-49.5-56.27-71.45-86.69c-8.66-12.01-17.37-24.1-21.18-38.78C382.58,142.72,388.33,135.1,399.8,135.2z" />
         <path id="petal2" class="st0" d="M508.16,75.55c10.91-1.32,17.2,6.27,23.5,12.93c44.88,47.46,73.52,103.23,85.12,167.65
	c3.1,17.21,6.14,34.43,8.51,51.76c0.45,3.28-0.16,4.64-3.59,5.44c-10.56,2.46-20.8,6-30.64,10.57c-2.62,1.22-3.94,0.93-5.55-1.63
	c-39.26-62.41-70.86-128.17-87.81-200.34c-2.4-10.21-4.41-20.53-4.32-31.1C493.46,79.56,497.08,75.85,508.16,75.55z" />
         <path id="petal3" class="st0" d="M634.24,162.72c0.01-28.59,2.28-56.9,10.83-84.4c1.54-4.96,3.7-9.63,6.51-14
	c5.17-8.05,14.78-8.9,21.81-2.41c9.49,8.75,14.12,20.12,17.42,32.04c15.41,55.79,17.95,112.23,7.83,169.21
	c-2.36,13.29-4.61,26.59-5.62,40.05c-0.24,3.23-0.88,4.66-4.67,4.27c-9.78-1.01-19.63-0.8-29.44-0.19
	c-2.09,0.13-3.79,0.41-4.25-2.57c-3.97-25.52-11.79-50.25-15.6-75.82C635.78,206.95,633.91,184.92,634.24,162.72z" />
         <path id="petal4" class="st0" d="M707.19,257.15c-2.62-55.77,7.27-107.39,23.29-158.13c3-9.48,6.88-18.33,12.83-26.33
	c7.37-9.91,20.13-10.46,28.36-1.07c3.66,4.18,5.08,9.28,6.28,14.5c12.93,56.03,11,111.41-7.24,166.08
	c-7.06,21.16-12.74,42.79-21.33,63.44c-1.34,3.22-2.41,4.34-6.1,2.96c-10.32-3.84-21.01-6.48-31.88-8.26c-3.2-0.53-4.36-1.48-4.31-5
	C707.32,288.54,707.19,271.71,707.19,257.15z" />
         <path id="petal5" class="st0" d="M939.16,137.36c-0.47,13.13-6.22,26.32-11.46,39.64c-19.38,49.26-48.76,92.25-82.66,132.48
	c-11.5,13.65-23.44,26.83-36.12,39.38c-2.11,2.09-3.42,2.2-5.79,0.44c-8.02-5.98-16.56-11.18-25.39-15.88
	c-1.73-0.92-2.98-1.56-2.11-4.11c11.65-34.03,22.92-68.21,39.06-100.49c12.78-25.57,30.57-47.6,49.91-68.36
	c12.59-13.53,26.11-26.18,41.43-36.71c2.19-1.51,4.5-2.87,6.86-4.09C927.27,112.21,939.27,119.62,939.16,137.36z" />
         <path id="petal6" class="st0" d="M1004.78,207.1c0.18,3.18-0.99,6.33-2.4,9.34c-9.29,19.9-17.31,40.43-29.45,58.92
	c-17.26,26.3-39.28,48.21-62.82,68.75c-18.6,16.24-38.46,30.82-58.77,44.82c-3.03,2.09-4.46,1.85-6.73-1.01
	c-6.84-8.62-14.53-16.49-22.81-23.75c-1.54-1.35-2.94-2.32-1.28-4.83c23.34-35.27,45.4-71.48,74.47-102.57
	c18.55-19.85,37.65-39.15,60-54.86c7.51-5.28,15.52-9.66,24.01-13.24C991.43,183.43,1005.9,194.1,1004.78,207.1z" />
         <path id="petal7" class="st0" d="M1078.07,314.27c2.05,0,4.38-0.02,6.71,0c9.43,0.08,15.49,3.82,18.49,11.65
	c3.14,8.19-0.88,14.54-6.49,19.49c-11.99,10.57-24.83,20.13-38.4,28.61c-48.02,29.99-98.99,53.21-154.06,67.04
	c-6.94,1.74-13.78,3.86-20.61,6.01c-2.61,0.82-4.11,0.91-5.25-2.2c-3.32-9.08-7.61-17.73-12.44-26.11c-0.91-1.57-1.46-2.7,0.46-4.16
	c26-19.63,50.03-41.9,78.88-57.71c36.78-20.16,74.94-36.14,117-41.12C1067.5,315.17,1072.65,314.79,1078.07,314.27z" />
         <path id="petal8" class="st0" d="M932.2,498.95c-12.13,0.74-24.27,1.37-36.39,2.29c-3.27,0.25-4.32-0.77-4.57-3.94
	c-0.83-10.65-2.81-21.13-5.75-31.4c-0.71-2.47-0.1-3.57,2.14-4.59c35.8-16.2,71.21-33.38,110.56-39.78
	c30.4-4.94,60.92-6.3,91.58-3.6c7.96,0.7,15.71,2.92,23.26,5.63c5.48,1.97,9.98,5.19,12.92,10.42c4.55,8.1,2.94,15.98-5.18,20.57
	c-13.2,7.47-27.24,13.26-41.45,18.51c-32.24,11.9-65.87,17.62-99.81,21.88C963.79,496.91,947.99,497.82,932.2,498.95z" />
         <path id="petal9" class="st0" d="M1044.89,590.49c-27.84-1.45-52.98-0.6-77.57-5.57c-26.09-5.28-52.1-11.07-77.61-18.85
	c-2.98-0.91-3.95-2.08-3.04-5.27c2.53-8.82,3.95-17.87,4.77-27.01c0.18-1.99,0.09-3.88,3.08-4.07c31.06-2.02,61.8-8.74,93.03-7.67
	c44.84,1.53,88.87,8.04,130.74,25.28c6.63,2.73,13.14,5.8,18.4,10.85c7.15,6.86,7.87,13.91,2.35,20.74
	c-1.18,1.47-2.51,2.66-4.45,2.98c-18.19,3.04-35.94,8.81-54.66,8.61C1067.28,590.38,1054.63,590.49,1044.89,590.49z" />
         <path id="petal10" class="st0" d="M1090.64,695.95c-10.53-1.26-21.2-2.3-31.48-5.04c-32.78-8.74-66.26-15.06-97.87-27.95
	c-26.09-10.64-51.06-23.58-76.02-36.56c-6.35-3.3-12.63-6.74-19.04-9.93c-2.48-1.23-3.06-2.25-1.4-4.82
	c6.16-9.51,11.27-19.59,15.28-30.19c0.77-2.03,1.87-2.29,3.77-2.1c67.65,6.83,132.06,23.35,188.82,62.87
	c9.99,6.95,19.73,14.2,28.3,22.9c1.86,1.89,3.62,3.93,5.13,6.1c8.19,11.77,3.32,22.55-10.94,24.36
	C1093.7,695.77,1092.21,695.83,1090.64,695.95z" />
         <path id="petal11" class="st0" d="M1024.12,781.44c-4.33-0.83-8.45-1.46-12.5-2.41c-53.05-12.43-101.9-34.23-145.71-66.69
	c-13.26-9.82-23.46-23.12-35.03-34.85c-4.08-4.14-7.53-8.89-11.43-13.22c-1.73-1.92-1.89-3.37,0.33-4.82
	c8.82-5.76,16.42-12.93,23.67-20.49c1.43-1.49,2.57-1.57,4.33-0.77c58.96,26.69,117.45,54.19,167.26,96.7
	c8.51,7.27,16.79,14.78,22.35,24.68c2.33,4.15,5.66,8.81,2.43,13.47C1036.18,778.28,1030.11,780.16,1024.12,781.44z" />
         <path id="petal12" class="st0" d="M935.03,854.68c0.09,10.92-7.32,19.39-22.09,14.84c-4.18-1.29-7.92-3.49-11.46-6
	c-35.25-25.07-65.12-55.62-89.59-91.12c-17.39-25.22-32.79-51.77-44.55-80.24c-1.43-3.46-1.22-5.21,2.78-6.37
	c11.68-3.39,22.81-8.13,32.88-15.09c1.99-1.37,3.11,0.2,4.3,1.2c37.38,31.19,72.53,64.29,96.27,107.76
	c10.85,19.88,23.1,39.02,28.99,61.21c0.81,3.05,1.42,6.17,2,9.28C934.88,851.8,934.92,853.48,935.03,854.68z" />
         <path id="petal13" class="st0" d="M778.53,831.95c-0.64,14.55-3.01,31.85-6.19,49.07c-2.63,14.25-22.95,22.87-35.26,10.03
	c-8.36-8.72-15.41-18.57-20.34-29.49c-9.87-21.88-18.21-44.38-23.17-67.97c-3.32-15.79-2.69-31.83-2.68-47.81
	c0.01-14.67,0.77-29.3,2.12-43.92c0.32-3.49,1.25-4.17,4.82-3.84c10.65,0.99,21.28,0.25,31.62-2.67c4.27-1.21,6.81-0.61,9.21,3.7
	c15.69,28.23,29.09,57.34,35.49,89.23C776.84,801.71,778.35,815.28,778.53,831.95z" />
         <path id="petal14" class="st0" d="M683.25,767.06c0.3,25.64-3.12,50.78-9.89,75.52c-2.68,9.79-4.87,19.71-7.12,29.61
	c-3.54,15.53-11.46,29.05-19.55,42.42c-3.31,5.48-8.16,10.44-15.3,9.45c-7.95-1.11-13.83-5.49-17.22-13.39
	c-9.93-23.18-11.26-47.86-12.75-72.43c-2.79-46.04,5.89-90.13,24.07-132.43c2.1-4.89,4.24-9.78,6.04-14.79
	c1.12-3.14,2.8-3.72,5.67-2.48c11.06,4.79,22.51,7.88,34.68,7.85c3.54-0.01,5.54,1.24,5.87,5.5
	C679.41,723.63,683.47,745.16,683.25,767.06z" />
         <path id="petal15" class="st0" d="M467.08,803.15c0.08-5.03,0.48-9.03,1.64-12.86c10.12-33.46,24.61-64.66,47.28-91.66
	c14.56-17.34,31.99-31.49,49.74-45.32c2.25-1.75,3.86-1.41,5.55,0.44c7.88,8.61,17.42,14.79,28.28,18.91
	c2.87,1.09,3.2,2.4,2.51,5.23c-10.61,43.82-31.36,82.22-61.64,115.51c-12.12,13.33-26.31,23.93-42.76,31.43
	c-12.64,5.76-27.63-2.09-29.94-15.75C467.35,806.8,467.22,804.47,467.08,803.15z" />
         <path id="petal16" class="st0" d="M361.78,765.28c-0.05-9.66,3.73-17.18,7.82-24.39c19.7-34.71,43.27-66.38,74.17-92.05
	c19.59-16.28,42.18-27.13,65.99-35.68c2.98-1.07,6.18-1.74,8.88-3.3c4.38-2.52,6.94-0.9,9.31,2.81
	c6.66,10.45,14.79,19.54,25.04,26.63c2.22,1.54,2.74,3.07,0.82,5.67c-21.8,29.56-44.65,58.25-74.09,80.64
	c-28.23,21.47-57.28,41.85-89.93,56.34c-11.16,4.95-21.64,1.52-26.36-8.39C362.01,770.62,361.68,767.52,361.78,765.28z" />
         <path id="petal17" class="st0" d="M388.77,612.01c-20.67-1.06-40.92-1.28-60.56-6.29c-11.21-2.86-22.69-5.63-31.61-13.96
	c-7.1-6.64-6.97-16.09,0.97-21.85c10.61-7.7,22.7-12.45,35.18-16.26c32.74-9.99,66.33-12.43,100.3-11.2
	c17.31,0.63,34.62,0.81,51.94,0.61c3.93-0.04,5.98,0.65,7.33,5.01c3.07,9.95,6.81,19.75,12.63,28.54c2.13,3.21,1.37,5.03-2.15,6.87
	C466.88,602.21,428.94,612.66,388.77,612.01z" />
         <path id="petal18" class="st0" d="M350.1,544.16c-31.44,0.18-61.49-7.05-91.72-12.92c-9.43-1.83-16.15-7.21-18.81-17.14
	c-1.48-5.52-0.39-9.83,3.62-13.57c6.33-5.89,13.89-9.71,21.99-12.48c48.22-16.5,97.67-21.88,148.27-15.92
	c18.56,2.19,36.48,7.7,54.74,11.48c4.56,0.94,10.23,0.88,13.26,3.63c3.19,2.89,0.6,8.75,0.96,13.3c0.74,9.27,1.64,18.52,3.91,27.56
	c0.64,2.57,0.06,3.6-2.61,3.94c-28.2,3.58-55.84,11.18-84.61,10.79C382.66,542.6,366.29,546.63,350.1,544.16z" />
         <path id="petal19" class="st0" d="M291.82,319.17c15.39,1.45,31.36,5.79,46.8,12.42c51.06,21.92,98.17,50.71,143.65,82.35
	c4.09,2.85,10,4.85,11.78,8.75c1.82,3.99-2.63,9.16-3.77,13.98c-1.46,6.16-3.01,12.29-4.31,18.48c-0.48,2.3-1.25,2.91-3.67,2.49
	c-51.31-8.98-99.53-25.11-141.82-57.03c-19.58-14.78-39.1-29.4-56.1-47.15c-3.38-3.53-6.22-7.39-8.39-11.73
	C269.64,329,276.3,318.64,291.82,319.17z" />
         <path id="petal20" class="st0" d="M314.21,248.63c18.63,0.47,35.43,5.47,52.15,10.55c32.73,9.94,63.43,24.05,90.81,44.93
	c17.06,13.01,31.39,28.77,45.68,44.58c6.59,7.28,12.92,14.8,19.43,22.15c1.52,1.72,1.99,2.91,0.24,5.02
	c-8.1,9.75-15.02,20.32-20.56,31.74c-1.02,2.1-1.96,2.63-4.17,1.52c-28.81-14.57-59.61-25.05-87.24-41.99
	c-39.54-24.25-77.45-50.7-109.75-84.39c-2.62-2.74-4.92-5.91-6.81-9.2c-6.15-10.76-1.73-20.83,10.24-23.91
	C307.83,248.7,311.48,248.63,314.21,248.63z" />
      </svg>
   </g>

   <!-- nested petals foreground SVG -->
   <g>
      <svg version="1.1" id="petales" xmlns="http://www.w3.org/2000/svg" xmlns:xlink="http://www.w3.org/1999/xlink"
         x="0px" y="0px" viewBox="0 0 1240 1754" style="enable-background:new 0 0 1240 1754;" xml:space="preserve">
         <defs>
            <!-- this filter adds a blur to the petals -->
            <filter id="f1" x="-150%" y="-150%" width="300%" height="300%">
               <feGaussianBlur in="SourceGraphic" stdDeviation="7" />
            </filter>
         </defs>
         <style type="text/css">
            .st3 {
               fill: #7AFF2C;
               filter: url(#f1)
            }
         </style>
         <path id="petal1" class="st3" d="M551.81,347.19c-20.08-22.06-46.02-52.92-66.5-75.2c-27.57-30-50.7-58.06-70.7-85.77
	c-8.36-11.58-16.25-22.53-19.61-35.45c-0.61-2.33-0.33-3.79,0.08-4.33c0.42-0.55,1.77-1.19,4.19-1.23
	c7.13,0.83,14.79,3.59,22.17,7.99c39.69,23.65,68.59,47.84,90.95,76.1c10.43,13.19,19.61,28.45,28.88,48.04
	c7.5,15.84,19.42,40.02,26.9,58.56C562.69,339.15,557.28,342.88,551.81,347.19z" />
         <path id="petal2" class="st3" d="M594.7,322.26c-41.73-67.11-72.52-139.77-87.29-202.62c-2.16-9.17-5.14-18.46-5.06-28.19
	c0.03-2.9,1.34-4.8,1.52-5.34c0.52-0.18,8.36-5.9,19.28,7.93l1.23,1.31c43.66,46.17,71.43,100.86,82.54,162.55
	c2.84,15.77,8.9,40.7,11.14,56.3C610.12,316.3,602.3,318.99,594.7,322.26z" />
         <path id="petal3" class="st3" d="M683.3,307.05c-3.13-0.19-6.37-0.28-9.79-0.28c-3.18,0-6.55,0.08-10.22,0.25
	c-1.91-10.74-4.18-31.32-6.58-41.62c-2.9-12.44-5.89-25.3-7.78-37.96c-3.46-23.26-5-44.38-4.7-64.57l0-0.14
	c0.01-33.28,3.21-58.39,10.38-81.43c1.28-4.12,3.09-8.01,5.37-11.56c0.91-1.41,1.96-2.13,3.12-2.13c1.09,0,2.33,0.59,3.49,1.66
	c6.59,6.08,10.94,14.26,14.56,27.36c14.9,53.95,17.46,109.4,7.62,164.8C686.66,273.34,684.47,295.05,683.3,307.05z" />
         <path id="petal4" class="st3" d="M739.55,317.23c-7.77-2.61-15.94-4.69-24.75-6.31c0.12-11.22,2.42-32.19,2.4-42.26
	c-0.01-3.96-0.02-11.74-0.02-11.74l-0.01-0.23c-2.3-48.9,4.96-98.04,22.84-154.65c3.06-9.68,6.65-17.1,11.31-23.37
	c1.8-2.42,4.1-3.75,6.48-3.75c2.22,0,4.46,1.17,6.33,3.31c1.96,2.23,2.94,5.29,4.06,10.16c12.65,54.8,10.3,108.85-6.98,160.67
	c-2.31,6.91-4.49,13.94-6.59,20.73C750.74,282.3,744.4,304.93,739.55,317.23z" />
         <path id="petal5" class="st3" d="M800.15,347.02c-5.61-3.95-11.63-7.71-18.22-11.39l0.68-1.99
	c10.49-30.71,26.38-71.05,41.03-100.36c10.57-21.15,25.46-41.51,48.28-66.02c14-15.04,26.64-26.25,39.77-35.28
	c1.76-1.21,8.37-5.2,11.79-5.2c1.74,0,2.58,0.62,3.12,1.16c1.63,1.64,2.23,5.01,2.56,9.21c0.95,12.34-10.25,34.89-10.76,36.18
	c-16.91,42.97-42.64,84.18-81,129.7C826.35,316.12,810.74,336.33,800.15,347.02z" />
         <path id="petal6" class="st3" d="M842.02,384.72c-5.21-6.2-11.03-12.27-17.39-18.1c2.52-3.84,53.67-77.36,77.66-103.02
	c20.33-21.74,38.04-39.16,58.45-53.5c6.78-4.77,14.23-8.87,22.14-12.21c0.91-0.38,1.87-0.58,2.86-0.58c2.48,0,5.06,1.2,6.9,3.2
	c0.91,0.99,2.4,3.06,2.17,5.74c0,0-0.22,3.23-1.5,5.96c-2.22,4.76-19.91,44.2-28.75,57.66c-18.3,27.88-42.23,50.29-61.03,66.7
	C888.45,349.76,864.2,369.31,842.02,384.72z" />
         <path id="petal7" class="st3" d="M875.98,439.28c-2.3-5.59-5.02-11.27-8.24-17.18c5.94-4.6,20.91-15.26,26.62-19.84
	c18.22-14.62,36.09-25.77,55.82-36.58c42.14-23.09,78.16-35.79,113.37-39.96c3.33-0.4,20.29-1.44,21.14-1.44
	c6.71,0.06,8.2,2.5,9.24,5.23c0.58,1.52,1.46,3.8-3.77,8.41c-11.51,10.15-23.98,19.45-37.08,27.63
	c-50.2,31.35-98.25,53.9-149.78,66.84C897.81,433.76,881.21,437.66,875.98,439.28z" />
         <path id="petal8" class="st3" d="M891.04,492.87c-0.86-7.5-2.25-15.06-4.17-22.6c1.42-0.65,78.79-33.23,113.52-38.88
	c19.75-3.21,39.55-4.84,58.83-4.84c10.1,0,20.28,0.45,30.27,1.33c5.97,0.53,12.57,2.14,20.75,5.08c3.69,1.33,6.03,3.15,7.58,5.91
	c2.44,4.35,0.89,5.68-1.39,6.97c-13.82,7.82-28.63,13.64-39.99,17.83c-32.92,12.15-67.81,17.6-97.59,21.34
	c-12.76,1.6-44.03,3.76-46.71,3.95C928.85,489.17,898.1,492.38,891.04,492.87z" />
         <path id="petal9" class="st3" d="M1022.72,579.64c-18.74-0.56-36.44-1.1-53.42-4.53c-21.52-4.35-56.41-11.87-81.35-19.19
	c1.39-5.85,2.42-12.2,3.17-18.92c10.03-0.82,26.7-2.16,38.52-2.75c17.32-0.87,55.46-2.29,57.57-2.21
	c50.36,1.72,90.81,9.52,127.28,24.54c6.41,2.64,11.46,5.15,15.28,8.81c3.89,3.73,3.24,5.04,1.78,6.88
	c-6.38,2.58-9.95,3.22-15.23,4.11C1096.74,579.67,1029.96,579.86,1022.72,579.64z" />
         <path id="petal10" class="st3" d="M1087.96,685.57c-9.2-1.08-44.24-8.93-53.02-11.08c-23.34-5.73-47.47-11.65-69.88-20.78
	c-25.98-10.59-51-23.6-75.18-36.17c-2.23-1.16-19.76-9.63-21.81-10.7c3.99-6.79,7.49-13.81,10.47-21.01
	c74.58,8.07,140.71,31.36,188.46,64.61c9.1,6.34,18.66,13.35,26.89,21.71c1.6,1.62,2.96,3.24,4.05,4.8c2,2.88,2.47,5.13,2.04,6.09
	c-0.44,0.98-2.47,2.18-6.03,2.63C1093.21,685.75,1088.93,685.68,1087.96,685.57z" />
         <path id="petal11" class="st3" d="M1014.7,770.57c-52.65-12.68-101.31-35.51-142.84-66.27c-8.36-6.19-30.13-30.05-33.87-33.84
	c-2.08-2.11-13.33-14.34-13.37-14.39c6.07-4.65,11.03-9.18,15.49-13.69c60.59,27.5,122.04,60.51,168.44,100.11
	c7.88,6.72,19.39,21.25,19.65,21.7C1028.61,764.92,1033.54,775.11,1014.7,770.57z" />
         <path id="petal12" class="st3" d="M920.54,860.78c-1.34,0-2.9-0.27-4.66-0.81c-2.58-0.79-5.31-2.25-8.6-4.6
	c-33.91-24.12-63.23-53.94-87.15-88.64c-17.46-25.32-36.14-58.16-46.46-82c9.29-3.1,15.66-5.49,23.16-10.09
	c33.98,28.54,75.24,68.21,97.97,109.84c2.01,3.69,23.61,42.08,28.11,58.99c0.75,2.82,1.32,5.77,1.84,8.54
	c0.11,0.59,0.27,2.82,0.29,3.1C925,857.21,922.67,860.78,920.54,860.78z" />
         <path id="petal13" class="st3" d="M751.51,886.9c-2.75,0-5.17-1.08-7.21-3.2c-8.03-8.38-14.24-17.35-18.45-26.69
	c-11.04-24.47-18.19-45.42-22.5-65.92c-2.65-12.6-2.57-25.51-2.5-39.18c0.01-2.19-1.09-40.47-0.03-53.5
	c1.39,0.06,2.78,0.08,4.15,0.08c8.28,0,16.37-1.03,24.08-3.07c18.01,32.62,30.04,68.36,35.26,94.39
	c2.71,13.53,4.19,26.35,4.19,41.53c0,20.26-1.99,35.07-6.02,47.43C761.11,883.03,756.66,886.9,751.51,886.9z" />
         <path id="petal14" class="st3" d="M632.77,914.16c-4.69,0-7.46-2.87-9.41-7.42c-9.06-21.15-11.96-69.09-11.96-69.09
	c-2.6-42.87,3.22-85.74,21.26-127.73c0,0,6.72-17.11,7.88-19.99c10.14,3.83,19.78,5.91,29.27,6.33c0.59,6.74,3.58,57.27,3.44,70.71
	v0.22c0.28,24.16-1.56,51.64-8.16,75.76c-2.41,8.79-18.44,52.44-26.95,66.5C637.27,910.87,635.3,914.16,632.77,914.16z" />
         <path id="petal15" class="st3"
            d="M477.6,807.42c-0.21-1.26-0.44-2.69-0.44-3.84c0-4.39,1.47-11.46,2.23-13.97
	c10.85-35.86,24.58-61.11,44.26-84.54c12.92-15.38,34.81-36.7,50.22-48.81c6.76,6.44,14.62,11.67,23.47,15.61
	c-10.38,39.72-36.05,83.75-64.3,114.81c-11.39,12.53-24.98,21.69-39.51,29.05C487.21,818.94,478.63,813.47,477.6,807.42z" />
         <path id="petal16" class="st3" d="M379.87,774.21c-3.37,0-5.86-1.66-7.43-4.94c-0.7-1.47-0.66-3.79-0.66-3.79s0-9.18,6.52-19.64
	c22.89-36.77,44.83-63.79,71.81-86.21c16.41-13.64,35.23-27.74,61.79-37.28c0.79-0.28,14.98-7.81,16.8-8.59
	c6.3,9.51,13.38,17.36,21.49,23.82c-18.62,25.03-48.67,58.89-76.54,80.09c-26.45,20.12-55.41,40.72-87.94,55.16
	C383.65,773.74,381.68,774.21,379.87,774.21z" />
         <path id="petal17" class="st3" d="M392.28,602.04c-15.88,0-51.42-2.84-61.49-5.4s-20.54-5.81-27.36-12.18
	c-1.31-1.22-2.05-2.59-1.99-3.65c0.08-1.23,0.89-3.19,1.6-3.71c8.15-5.91,18.49-9.57,32.63-13.88c24.38-7.44,48.9-11.05,79.45-11.05
	c4.96,0,12.32,0.09,17.57,0.28c12.75,0.46,24.08-1.34,37.33-1.34c3.8,0,19.09-1.17,22.95-1.21c2.26,7.11,5.37,15.62,10.07,23.93
	C469.65,590.44,426.06,602.04,392.28,602.04z" />
         <path id="petal18" class="st3" d="M348.92,534.16c-14.9,0-49.18-4.83-74.59-9.95c-4.68-0.94-9.36-1.88-14.04-2.79
	c-6.21-1.21-9.06-2.7-10.6-8.44c-0.63-2.35,1.64-6.82,2.63-7.75c4.69-4.36,8.23-5.02,16.11-7.72
	c34.38-11.77,69.8-17.73,105.26-17.73c12.73,0,25.72,0.77,38.6,2.29c11.6,1.37,22.9,4.09,34.85,6.97c6.2,1.49,34.97,5.25,35.71,5.37
	c-0.25,1.95-0.55,4.35-0.35,6.88c0.55,6.99,1.22,14.33,2.59,21.81c-7.18,1.07-24.46,2.61-31.31,3.58
	C419.21,531.55,363.83,534.16,348.92,534.16z" />
         <path id="petal19" class="st3" d="M486.96,450.51c-54.12-10.19-105.24-31.31-140.45-57.89c0,0-38.83-29.3-54.91-46.08
	c-2.85-2.98-5.03-6.01-6.66-9.28c-1.57-3.15-1.53-5.24-1.01-6.08c0.63-1.01,2.96-2.03,6.77-2.03c0.17,0,29.38,5.36,43.98,11.63
	c44.43,19.08,154.64,87.39,156.18,88.25c0.64,0.36,1.44,0.8,2.15,1.23c-0.14,0.31-0.28,0.6-0.4,0.87c-0.97,2.07-2.07,4.42-2.71,7.13
	c-0.4,1.69-0.81,3.38-1.22,5.07C488.1,445.68,487.52,448.08,486.96,450.51z" />
         <path id="petal20" class="st3" d="M505.13,402c-9.43-4.56-27.75-13.64-37.08-17.73c-17.51-7.69-35.62-15.64-51.97-25.66
	c-32.09-19.68-73.35-46.88-107.76-82.78c-1.95-2.03-3.79-4.54-5.34-7.25c-1.34-2.35-1.77-4.5-1.18-5.89
	c0.61-1.44,2.52-2.67,5.23-3.37c2.32-0.6,4.96-0.68,7.24-0.68h0.11c17.59,0.47,33.75,5.37,49.38,10.12
	c34.5,10.48,63.18,24.65,87.65,43.31c16.58,12.65,30.69,28.25,44.32,43.33c3.76,4.16,23.14,21.29,24.75,23.14
	C514.66,386.01,509.52,393.87,505.13,402z" />
      </svg>
   </g>
</svg>